<?xml version="1.0" encoding="UTF-8"?>
<!DOCTYPE svg PUBLIC "-//W3C//DTD SVG 1.1//EN" "http://www.w3.org/Graphics/SVG/1.1/DTD/svg11.dtd">
<!-- Creator: CorelDRAW X8 -->
<svg xmlns="http://www.w3.org/2000/svg" xml:space="preserve" width="901px" height="191px" version="1.1" style="shape-rendering:geometricPrecision; text-rendering:geometricPrecision; image-rendering:optimizeQuality; fill-rule:evenodd; clip-rule:evenodd"
viewBox="0 0 901 191"
 xmlns:xlink="http://www.w3.org/1999/xlink">
 <defs>
  <style type="text/css">
   <![CDATA[
    .fil1 {fill:#09B35E}
    .fil2 {fill:#1C1B17}
    .fil5 {fill:#FEFEFE}
    .fil0 {fill:#FF7354}
    .fil4 {fill:#1C1B17;fill-rule:nonzero}
    .fil3 {fill:#4D4D4D;fill-rule:nonzero}
   ]]>
  </style>
 </defs>
 <g id="Layer_x0020_1">
  <metadata id="CorelCorpID_0Corel-Layer"/>
  <g id="_2949363248240">
   <polygon class="fil0" points="65,168 95,126 95,126 65,126 65,168 "/>
   <polygon class="fil1" points="89,89 86,84 68,56 68,56 56,36 68,37 21,0 9,33 17,33 47,86 "/>
   <path class="fil0" d="M113 54l-24 35 -21 -33 4 -6 28 0c4,0 9,2 13,4z"/>
   <path class="fil2" d="M65 168l0 -42 30 0 28 41c-9,4 -19,6 -30,6 -10,0 -19,-2 -28,-5zm29 -164c51,0 93,41 93,93 0,28 -13,53 -33,70l0 0 0 0 0 1 0 0c-1,1 -3,2 -4,3l0 0 0 0 -1 0c-15,12 -35,20 -56,20 -52,0 -93,-42 -93,-93 0,-5 0,-10 1,-14 2,-14 7,-27 14,-38l11 18c-5,10 -8,22 -8,34 0,21 8,40 21,53l0 -48 61 1c14,0 26,-12 26,-27 0,-16 -12,-27 -26,-27l-28 0 15 -22 14 0c33,0 51,24 51,49 0,20 -11,38 -30,45l28 40c18,-16 30,-39 30,-65 0,-48 -39,-86 -86,-86 -14,0 -27,3 -38,8l-6 -4c13,-7 28,-11 44,-11z"/>
   <polygon class="fil3" points="399,171 399,151 394,151 394,171 "/>
   <polygon class="fil3" points="427,171 427,151 422,151 417,159 411,151 407,151 407,171 411,171 411,158 417,166 417,166 423,158 423,171 "/>
   <path class="fil3" d="M451 158l0 0c0,-1 0,-2 -1,-3 0,-1 -1,-2 -1,-2 -1,-1 -2,-2 -3,-2 -1,0 -2,0 -3,0l-8 0 0 20 4 0 0 -6 4 0c1,0 2,0 3,-1 1,0 2,0 2,-1 1,-1 2,-1 2,-2 1,-1 1,-2 1,-3zm-5 0c0,1 0,1 -1,2 0,1 -1,1 -2,1l-4 0 0 -6 4 0c1,0 2,0 2,0 1,1 1,2 1,3l0 0z"/>
   <polygon class="fil3" points="472,171 472,167 461,167 461,163 471,163 471,159 461,159 461,155 472,155 472,151 457,151 457,171 "/>
   <polygon class="fil3" points="497,171 490,161 497,151 492,151 488,157 483,151 478,151 485,161 478,171 483,171 487,164 492,171 "/>
   <path class="fil3" d="M528 158l0 0c0,-1 0,-2 0,-3 -1,-1 -1,-2 -2,-2 0,-1 -1,-2 -2,-2 -1,0 -2,0 -4,0l-8 0 0 20 5 0 0 -6 3 0c1,0 2,0 3,-1 1,0 2,0 3,-1 1,-1 1,-1 2,-2 0,-1 0,-2 0,-3zm-4 0c0,1 -1,1 -1,2 -1,1 -2,1 -3,1l-3 0 0 -6 3 0c1,0 2,0 3,0 0,1 1,2 1,3l0 0z"/>
   <polygon class="fil3" points="553,151 548,151 543,165 538,151 533,151 541,171 545,171 "/>
   <polygon class="fil3" points="575,155 575,151 558,151 558,155 564,155 564,171 568,171 568,155 "/>
   <polygon class="fil3" points="604,171 604,167 594,167 594,151 590,151 590,171 "/>
   <polygon class="fil3" points="615,171 615,151 611,151 611,171 "/>
   <polygon class="fil3" points="643,171 643,151 639,151 633,159 628,151 623,151 623,171 627,171 627,158 633,166 633,166 639,158 639,171 "/>
   <polygon class="fil3" points="656,171 656,151 651,151 651,171 "/>
   <polygon class="fil3" points="679,155 679,151 662,151 662,155 669,155 669,171 673,171 673,155 "/>
   <polygon class="fil3" points="701,171 701,167 690,167 690,163 699,163 699,159 690,159 690,155 701,155 701,151 685,151 685,171 "/>
   <path class="fil3" d="M727 161l0 0c0,-2 -1,-3 -1,-4 -1,-2 -2,-3 -2,-4 -1,0 -3,-1 -4,-2 -1,0 -3,0 -4,0l-8 0 0 20 8 0c1,0 3,0 4,-1 1,0 3,-1 4,-2 0,-1 1,-2 2,-3 0,-1 1,-3 1,-4zm-5 0c0,1 0,2 -1,2 0,1 0,2 -1,2 0,1 -1,1 -2,1 -1,1 -1,1 -2,1l-4 0 0 -12 4 0c1,0 1,0 2,0 1,0 2,1 2,1 1,1 1,2 1,2 1,1 1,2 1,3l0 0z"/>
   <path class="fil2" d="M600 115l16 0 -10 -19 -9 13c1,2 2,4 3,6zm-6 -41l-22 -39 -44 80 16 0c9,-18 19,-34 28,-52 3,6 7,13 10,19l12 -8zm-360 4l0 -14 -14 0 0 14 0 2 0 35 14 0 0 -24 17 0 17 23 17 0 -18 -25c11,-5 16,-15 16,-26 0,-14 -10,-28 -28,-28l-25 0 -10 13 34 0c8,0 15,6 15,15 0,9 -7,15 -15,15l-20 0zm141 37l14 0 17 0c21,0 38,-17 38,-40 0,-28 -17,-40 -38,-40l-20 0 -11 14 29 0c14,0 25,8 25,26 0,15 -11,25 -25,26l-15 0 0 -37 -14 0 0 37 0 14zm-46 1c19,0 31,-14 31,-32l0 -49 -14 0 0 49c0,10 -6,17 -17,17 -11,0 -17,-7 -17,-17l0 -49 -15 0 0 49c0,18 13,32 32,32zm129 -1l15 0 0 -24 17 0 16 23 18 0 -19 -25c11,-5 17,-15 17,-26 0,-14 -10,-28 -29,-28l-26 0 -9 13 35 0c8,0 15,6 15,15 0,9 -7,15 -15,15l-35 0 0 37z"/>
   <polygon class="fil2" points="458,80 472,80 472,64 458,64 "/>
   <polygon class="fil1" points="567,115 585,89 579,89 605,71 611,89 606,89 589,115 "/>
   <polygon class="fil0" points="554,95 567,115 578,99 565,77 "/>
   <path class="fil4" d="M625 107c36,18 62,9 62,-15 0,-26 -48,-19 -48,-35 1,-12 22,-14 39,0l7 -12c-26,-19 -59,-12 -60,11 -2,29 48,24 48,37 0,14 -25,12 -43,0l-5 14zm88 7l15 0 0 -65 21 0 0 -14 -57 0 0 14 21 0 0 65zm100 0l16 0 -44 -79 -44 79 16 0 6 -11 0 0 2 -3 0 0 10 -18 10 -19 10 19 11 18 0 0 7 14z"/>
   <path class="fil2" d="M836 115l14 0 0 -24 17 0 17 23 17 0 -18 -25c11,-5 16,-15 16,-26 0,-14 -10,-28 -28,-28l-27 0 -8 13 34 0c8,0 15,6 15,15 0,9 -7,15 -15,15l-34 0 0 37z"/>
   <polygon class="fil5" points="707,49 733,49 733,59 707,59 "/>
   <polygon class="fil0" points="347,159 365,159 365,163 347,163 "/>
   <polygon class="fil0" points="754,159 772,159 772,163 754,163 "/>
   <polygon class="fil5" points="620,50 649,50 649,63 620,63 "/>
  </g>
 </g>
</svg>
